<svg xmlns="http://www.w3.org/2000/svg" width="14" height="14" viewBox="0 0 16 16" fill="currentColor" aria-hidden="true" focusable="false">
  <path d="M5.5 5.5A.5.5 0 0 1 6 6v6a.5.5 0 0 1-1 0V6a.5.5 0 0 1 .5-.5m2.5 0A.5.5 0 0 1 8.5 6v6a.5.5 0 0 1-1 0V6a.5.5 0 0 1 .5-.5m3 .5a.5.5 0 0 0-1 0v6a.5.5 0 0 0 1 0z"/>
  <path d="M14 3a1 1 0 0 1-1 1h-.538l-.853 10.66A2 2 0 0 1 9.615 16h-3.23a2 2 0 0 1-1.994-1.34L3.538 4H3a1 1 0 1 1 0-2h3.086a1 1 0 0 1 .707-.293h2.414a1 1 0 0 1 .707.293H13a1 1 0 0 1 1 1m-9.46 1 .84 10.5a1 1 0 0 0 .997.5h3.246a1 1 0 0 0 .997-.5l.84-10.5z"/>
</svg>
